:SAMPLES-PER-SECOND 30
:FULLY-SPECIFIED
:DEGREES
416
root  1.48422 18.1696 -53.8013 -117.645 -3.38454 179.223
RightUpLeg  -81.8459 -6.03011 11.217
RightLeg  118.609 26.1477 -16.9407
RightFoot  7.1003 0.616923 -3.6316
RightToes  -5.82073e-011 -3.18055e-015 -2.98177e-016
Spine  28.1949 -3.40789 10.4244
Spine1  -6.91068 -2.5887 7.48937
HEad  -24.244 4.31489 2.57036
LeftShoulder1  -3.88251e-019 9.70628e-020 -3.87848e-018
LeftArm  -1.88505 -27.8545 -63.1698
LeftForeArm  -12.4215 -9.40291 -2.3701
LeftHand  -8.15754 -8.20544 64.4457
RightShoulder  4.04407 9.36883 18.6517
RightArm  1.7219 9.2192 62.9296
RightForeArm  36.2728 8.12359 -7.163
RightHand  -13.8263 11.5212 -79.2278
LeftUpLeg  -43.115 -6.22584 -10.4396
LeftLeg  85.9868 -13.937 25.7589
LeftFoot  -9.73355 0.37977 -13.7759
LeftToes  -2.27483e-011 -5.53417e-011 9.36564e-012
417
root  1.67031 18.1476 -54.2724 -116.411 -4.22789 179.858
RightUpLeg  -81.512 -5.58513 13.3938
RightLeg  116.836 26.2512 -18.1176
RightFoot  7.03935 0.732935 -4.28943
RightToes  -5.82073e-011 -3.18055e-015 -2.98177e-016
Spine  27.0758 -2.84603 11.7047
Spine1  -7.11801 -1.63491 5.24501
HEad  -24.6628 1.86783 2.66003
LeftShoulder1  -3.88251e-019 9.70628e-020 -3.87848e-018
LeftArm  -0.367545 -28.3136 -65.8142
LeftForeArm  -10.8241 -9.01786 -3.19208
LeftHand  -8.6439 -8.69667 65.5499
RightShoulder  4.36321 9.65816 20.0496
RightArm  1.17894 6.50156 59.8615
RightForeArm  35.4104 9.28125 -7.2068
RightHand  -14.0018 11.5002 -80.0209
LeftUpLeg  -43.2492 -5.21181 -8.96812
LeftLeg  84.3877 -13.2331 26.2828
LeftFoot  -9.85097 0.351412 -13.2941
LeftToes  -2.27483e-011 -5.53417e-011 9.36564e-012
418
root  1.8606 18.1505 -54.7712 -115.834 -4.73335 -177.864
RightUpLeg  -80.2612 -3.8553 15.6381
RightLeg  115.117 25.7222 -18.3598
RightFoot  7.44398 0.793676 -4.55066
RightToes  -5.82073e-011 -3.18055e-015 -2.98177e-016
Spine  26.906 -2.08935 13.5618
Spine1  -7.40093 -0.0856943 2.11857
HEad  -25.0747 -0.166979 2.1277
LeftShoulder1  -3.88251e-019 9.70628e-020 -3.87848e-018
LeftArm  0.0614213 -28.7876 -67.9075
LeftForeArm  -8.69024 -7.95262 -3.77506
LeftHand  -9.01022 -8.88361 67.0227
RightShoulder  4.67906 9.91162 21.4405
RightArm  2.18647 3.51979 56.7043
RightForeArm  33.6078 12.314 -7.1769
RightHand  -13.7989 11.6125 -78.807
LeftUpLeg  -42.778 -2.36421 -6.93411
LeftLeg  82.9306 -12.5569 26.4132
LeftFoot  -10.045 0.32657 -13.2379
LeftToes  -2.27483e-011 -5.53417e-011 9.36564e-012
419
root  2.10038 18.0801 -55.2731 -116.012 -4.89796 -175.235
RightUpLeg  -77.8829 -1.77862 17.1061
RightLeg  114.212 24.7491 -17.3373
RightFoot  7.619 0.563355 -3.25446
RightToes  -5.82073e-011 -3.18055e-015 -2.98177e-016
Spine  27.6967 -1.23058 14.4208
Spine1  -8.07341 1.44163 0.0498351
HEad  -24.8504 -1.50371 0.620966
LeftShoulder1  -3.88251e-019 9.70628e-020 -3.87848e-018
LeftArm  -0.34611 -28.4086 -68.6834
LeftForeArm  -6.49213 -7.70317 -4.30154
LeftHand  -9.19079 -8.92593 67.9131
RightShoulder  4.8604 10.0276 22.2675
RightArm  6.00534 0.199111 53.961
RightForeArm  30.3919 16.4271 -8.16086
RightHand  -13.0742 11.7903 -75.1778
LeftUpLeg  -41.4123 0.92718 -4.80896
LeftLeg  81.9351 -12.097 25.7421
LeftFoot  -10.2029 0.317854 -13.6305
LeftToes  -2.27483e-011 -5.53417e-011 9.36564e-012
420
root  2.41064 17.974 -55.7968 -116.666 -4.12181 -173.129
RightUpLeg  -74.9857 0.409604 16.8559
RightLeg  114.299 23.2777 -14.7774
RightFoot  7.22549 0.235798 -1.50216
RightToes  -5.82073e-011 -3.18055e-015 -2.98177e-016
Spine  28.4068 -0.181202 13.2255
Spine1  -8.17896 2.59231 -0.732327
HEad  -24.2466 -1.96988 -0.679066
LeftShoulder1  -3.88251e-019 9.70628e-020 -3.87848e-018
LeftArm  -0.36909 -27.6071 -68.3419
LeftForeArm  -5.17453 -8.3243 -5.00405
LeftHand  -9.27239 -8.98685 68.1497
RightShoulder  4.92716 10.0541 22.5969
RightArm  10.7583 -3.28566 52.1663
RightForeArm  26.076 20.3369 -11.1219
RightHand  -12.2268 11.8832 -71.201
LeftUpLeg  -39.3892 4.0774 -3.50902
LeftLeg  81.189 -11.7925 24.3746
LeftFoot  -9.61339 0.405682 -14.1238
LeftToes  -2.27483e-011 -5.53417e-011 9.36564e-012
421
root  2.74721 17.9233 -56.2187 -116.036 -4.46904 -172.578
RightUpLeg  -74.0822 1.67453 16.6306
RightLeg  114.622 21.5441 -11.5315
RightFoot  7.29686 0.0642745 -0.553656
RightToes  -5.82073e-011 -3.18055e-015 -2.98177e-016
Spine  27.1982 0.0912337 12.3535
Spine1  -7.75669 2.6062 -1.13068
HEad  -23.8331 -1.62889 -0.704122
LeftShoulder1  -3.88251e-019 9.70628e-020 -3.87848e-018
LeftArm  -0.363868 -27.0304 -67.6971
LeftForeArm  -3.88393 -8.56796 -5.37816
LeftHand  -9.37425 -9.07766 68.3863
RightShoulder  4.90819 10.0228 22.545
RightArm  10.3715 -6.32088 51.667
RightForeArm  24.3692 24.031 -13.9718
RightHand  -11.7815 11.9112 -69.0998
LeftUpLeg  -40.0437 5.45135 -1.86356
LeftLeg  81.6305 -12.0268 22.656
LeftFoot  -7.52368 0.709815 -14.8675
LeftToes  -2.27483e-011 -5.53417e-011 9.36564e-012
422
root  3.0584 18.0109 -56.5554 -115.066 -5.50537 -172.954
RightUpLeg  -74.1175 2.41789 16.32
RightLeg  114.622 19.7391 -8.17702
RightFoot  8.20712 -0.122766 0.439037
RightToes  -5.82073e-011 -3.18055e-015 -2.98177e-016
Spine  25.9645 -0.231322 12.0958
Spine1  -7.87732 2.05036 -1.5227
HEad  -23.5623 -1.16989 -0.0233139
LeftShoulder1  -3.88251e-019 9.70628e-020 -3.87848e-018
LeftArm  -1.14399 -26.5675 -67.4405
LeftForeArm  -1.64293 -8.10336 -5.18111
LeftHand  -9.507 -9.21442 68.6209
RightShoulder  4.89154 9.95511 22.571
RightArm  6.70028 -7.83311 51.6726
RightForeArm  22.8259 27.7163 -15.797
RightHand  -11.617 11.8265 -68.6001
LeftUpLeg  -42.5259 5.88549 -0.103063
LeftLeg  83.1603 -12.6357 20.7325
LeftFoot  -4.40251 1.16913 -15.4859
LeftToes  -2.27483e-011 -5.53417e-011 9.36564e-012
423
root  3.34442 18.1672 -56.7884 -114.69 -6.64534 -173.88
RightUpLeg  -73.7088 2.60331 15.8303
RightLeg  114.561 18.0816 -4.97645
RightFoot  8.8149 -0.376156 1.72525
RightToes  -5.82073e-011 -3.18055e-015 -2.98177e-016
Spine  26.2122 -0.574928 11.8358
Spine1  -9.20392 1.48561 -1.11004
HEad  -23.2153 -1.32765 0.398337
LeftShoulder1  -3.88251e-019 9.70628e-020 -3.87848e-018
LeftArm  -1.94055 -26.2408 -67.8503
LeftForeArm  0.503848 -7.38541 -5.02426
LeftHand  -9.6329 -9.39973 68.6302
RightShoulder  4.95327 9.86725 23.0779
RightArm  4.07129 -7.21215 51.0138
RightForeArm  18.5333 30.6772 -17.3492
RightHand  -11.2934 11.4879 -68.141
LeftUpLeg  -45.2723 5.71666 1.44409
LeftLeg  85.801 -13.478 18.3787
LeftFoot  -2.60892 1.31285 -14.3295
LeftToes  -2.27483e-011 -5.53417e-011 9.36564e-012
424
root  3.63093 18.2899 -56.9125 -114.719 -7.71393 -175.428
RightUpLeg  -72.8844 1.95965 15.4696
RightLeg  114.646 16.9076 -2.60515
RightFoot  8.4394 -0.459419 2.18949
RightToes  -5.82073e-011 -3.18055e-015 -2.98177e-016
Spine  27.1107 -0.987392 11.1279
Spine1  -10.509 0.73481 0.205021
HEad  -23.1893 -1.66066 0.721483
LeftShoulder1  -3.88251e-019 9.70628e-020 -3.87848e-018
LeftArm  -1.65828 -26.5795 -68.3002
LeftForeArm  1.03094 -6.47424 -5.3315
LeftHand  -9.72524 -9.50754 68.7407
RightShoulder  4.82617 9.72177 22.6135
RightArm  0.46468 -5.31574 51.3168
RightForeArm  14.3946 32.3314 -18.1922
RightHand  -10.7707 10.9675 -67.2728
LeftUpLeg  -47.9103 4.94112 2.45827
LeftLeg  89.6308 -14.4333 15.9807
LeftFoot  -4.86435 0.773823 -10.5931
LeftToes  -2.27483e-011 -5.53417e-011 9.36564e-012
425
root  3.92061 18.3783 -56.9989 -114.742 -8.50705 -177.366
RightUpLeg  -72.162 0.816729 15.4646
RightLeg  114.468 16.6108 -2.00892
RightFoot  7.87512 -0.34747 1.66437
RightToes  -5.82073e-011 -3.18055e-015 -2.98177e-016
Spine  28.0182 -1.37665 10.0885
Spine1  -11.365 0.0186627 1.16572
HEad  -23.397 -2.17886 1.52418
LeftShoulder1  -3.88251e-019 9.70628e-020 -3.87848e-018
LeftArm  -0.463178 -27.5816 -69.1319
LeftForeArm  0.772078 -5.24252 -5.7622
LeftHand  -9.76174 -9.46334 69.106
RightShoulder  4.4901 9.41594 21.2086
RightArm  -4.13448 -3.0375 52.362
RightForeArm  11.1966 32.8407 -18.3777
RightHand  -10.2184 10.4518 -66.1702
LeftUpLeg  -50.6133 4.245 2.71518
LeftLeg  94.1945 -15.438 14.6763
LeftFoot  -11.8091 0.0343869 -7.19861
LeftToes  -2.27483e-011 -5.53417e-011 9.36564e-012
426
root  4.1941 18.4643 -57.0998 -114.908 -8.73497 -178.983
RightUpLeg  -71.5126 -0.0632899 15.7567
RightLeg  113.711 17.2056 -3.31807
RightFoot  7.7205 -0.366437 1.78058
RightToes  -5.82073e-011 -3.18055e-015 -2.98177e-016
Spine  29.0714 -1.40322 9.08834
Spine1  -11.9361 -0.15032 1.04693
HEad  -23.552 -3.14976 2.40174
LeftShoulder1  -3.88251e-019 9.70628e-020 -3.87848e-018
LeftArm  0.517786 -28.674 -70.5248
LeftForeArm  1.2269 -4.24611 -5.91477
LeftHand  -9.77192 -9.43608 69.2635
RightShoulder  4.15612 9.06532 19.84
RightArm  -8.32526 0.233373 52.9955
RightForeArm  9.46822 31.7374 -17.6183
RightHand  -9.68453 10.0266 -64.7746
LeftUpLeg  -53.2948 4.37432 2.33839
LeftLeg  99.0179 -16.5114 14.2117
LeftFoot  -20.8715 -0.571553 -7.36169
LeftToes  -2.27483e-011 -5.53417e-011 9.36564e-012
